{
    "asset" : {
        "generator" : "Khronos glTF Blender I/O v3.2.40",
        "version" : "2.0"
    },
    "scene" : 0,
    "scenes" : [
        {
            "name" : "Scene",
            "nodes" : [
                0
            ]
        }
    ],
    "nodes" : [
        {
            "mesh" : 0,
            "name" : "Cylinder",
            "scale" : [
                1.6529128551483154,
                1.6529128551483154,
                1.6529128551483154
            ]
        }
    ],
    "meshes" : [
        {
            "name" : "Cylinder",
            "primitives" : [
                {
                    "attributes" : {
                        "POSITION" : 0,
                        "NORMAL" : 1,
                        "TEXCOORD_0" : 2
                    },
                    "indices" : 3
                },
                {
                    "attributes" : {
                        "POSITION" : 4,
                        "NORMAL" : 5,
                        "TEXCOORD_0" : 6
                    },
                    "indices" : 7
                }
            ]
        }
    ],
    "accessors" : [
        {
            "bufferView" : 0,
            "componentType" : 5126,
            "count" : 277,
            "max" : [
                1.6467053890228271,
                0.26783299446105957,
                1.6467053890228271
            ],
            "min" : [
                -1.6467053890228271,
                -0.26783299446105957,
                -1.6467053890228271
            ],
            "type" : "VEC3"
        },
        {
            "bufferView" : 1,
            "componentType" : 5126,
            "count" : 277,
            "type" : "VEC3"
        },
        {
            "bufferView" : 2,
            "componentType" : 5126,
            "count" : 277,
            "type" : "VEC2"
        },
        {
            "bufferView" : 3,
            "componentType" : 5123,
            "count" : 597,
            "type" : "SCALAR"
        },
        {
            "bufferView" : 4,
            "componentType" : 5126,
            "count" : 5308,
            "max" : [
                1.314995527267456,
                0.26783299446105957,
                1.3454736471176147
            ],
            "min" : [
                -1.326745867729187,
                -0.26783299446105957,
                -1.2954773902893066
            ],
            "type" : "VEC3"
        },
        {
            "bufferView" : 5,
            "componentType" : 5126,
            "count" : 5308,
            "type" : "VEC3"
        },
        {
            "bufferView" : 6,
            "componentType" : 5126,
            "count" : 5308,
            "type" : "VEC2"
        },
        {
            "bufferView" : 7,
            "componentType" : 5123,
            "count" : 9972,
            "type" : "SCALAR"
        }
    ],
    "bufferViews" : [
        {
            "buffer" : 0,
            "byteLength" : 3324,
            "byteOffset" : 0
        },
        {
            "buffer" : 0,
            "byteLength" : 3324,
            "byteOffset" : 3324
        },
        {
            "buffer" : 0,
            "byteLength" : 2216,
            "byteOffset" : 6648
        },
        {
            "buffer" : 0,
            "byteLength" : 1194,
            "byteOffset" : 8864
        },
        {
            "buffer" : 0,
            "byteLength" : 63696,
            "byteOffset" : 10060
        },
        {
            "buffer" : 0,
            "byteLength" : 63696,
            "byteOffset" : 73756
        },
        {
            "buffer" : 0,
            "byteLength" : 42464,
            "byteOffset" : 137452
        },
        {
            "buffer" : 0,
            "byteLength" : 19944,
            "byteOffset" : 179916
        }
    ],
    "buffers" : [
        {
            "byteLength" : 199860,
            "uri" : "data:application/octet-stream;base64,"
        }
    ]
}
